<svg width="68" height="78" viewBox="0 0 68 78" fill="none" xmlns="http://www.w3.org/2000/svg">
<path fill-rule="evenodd" clip-rule="evenodd" d="M65.025 39H48.1667V19.5C48.1667 18.0375 47.2033 17.0625 45.7583 17.0625H40.9417V12.1875C40.9417 10.725 39.9783 9.75 38.5333 9.75H36.125V2.4375C36.125 0.975 35.1617 0 33.7167 0C32.2717 0 31.3083 0.975 31.3083 2.4375V9.75H28.9C27.455 9.75 26.4917 10.725 26.4917 12.1875V17.0625H21.675C20.23 17.0625 19.2667 18.0375 19.2667 19.5V46.3125H2.40833C0.963333 46.3125 0 47.2875 0 48.75V75.5625C0 77.025 0.963333 78 2.40833 78H21.675H28.9H38.5333H45.7583H65.025C66.47 78 67.4333 77.025 67.4333 75.5625V41.4375C67.4333 39.975 66.47 39 65.025 39ZM14.45 68.25H7.225V63.375H14.45V68.25ZM14.45 60.9375H7.225V56.0625H14.45V60.9375ZM24.0833 68.25H16.8583V63.375H24.0833V68.25ZM24.0833 60.9375H16.8583V56.0625H24.0833V60.9375ZM36.125 41.4375V73.125H31.3083V48.75C31.3083 47.2875 30.345 46.3125 28.9 46.3125H24.0833V21.9375H28.9C30.345 21.9375 31.3083 20.9625 31.3083 19.5V14.625H36.125V19.5C36.125 20.9625 37.0883 21.9375 38.5333 21.9375H43.35V39H38.5333C37.0883 39 36.125 39.975 36.125 41.4375ZM50.575 68.25H43.35V63.375H50.575V68.25ZM50.575 60.9375H43.35V56.0625H50.575V60.9375ZM50.575 53.625H43.35V48.75H50.575V53.625ZM60.2083 68.25H52.9833V63.375H60.2083V68.25ZM60.2083 60.9375H52.9833V56.0625H60.2083V60.9375ZM60.2083 53.625H52.9833V48.75H60.2083V53.625Z" fill="black"/>
</svg>
